<svg xmlns="http://www.w3.org/2000/svg" width="128" height="32" viewBox="0 0 128 32">
  <rect x="0" y="0" width="32" height="32" fill="#4a7c23"/>
  <rect x="2" y="2" width="6" height="8" fill="#5a8c33"/>
  <rect x="12" y="4" width="4" height="10" fill="#5a8c33"/>
  <rect x="20" y="1" width="5" height="9" fill="#5a8c33"/>

  <rect x="32" y="0" width="32" height="32" fill="#1a3010"/>
  <rect x="35" y="3" width="6" height="8" fill="#223f16"/>
  <rect x="45" y="5" width="4" height="10" fill="#223f16"/>
  <rect x="53" y="2" width="5" height="9" fill="#223f16"/>

  <rect x="64" y="0" width="32" height="32" fill="#8a6a3f"/>
  <rect x="68" y="6" width="6" height="4" fill="#775b34"/>
  <rect x="82" y="16" width="8" height="4" fill="#775b34"/>
  <rect x="74" y="22" width="5" height="5" fill="#775b34"/>

  <rect x="96" y="0" width="32" height="32" fill="#0f2010"/>
  <circle cx="104" cy="10" r="6" fill="#0a1208"/>
  <circle cx="116" cy="12" r="7" fill="#0a1208"/>
  <circle cx="110" cy="20" r="8" fill="#0b160a"/>
</svg>
