<svg xmlns="http://www.w3.org/2000/svg" width="320" height="55" viewBox="0 0 320 55">
  <rect x="0" y="10" width="80" height="35" fill="#8b0000"/>
  <rect x="15" y="0" width="50" height="20" fill="#660000"/>
  <rect x="20" y="3" width="18" height="14" fill="#87ceeb"/>
  <rect x="42" y="3" width="18" height="14" fill="#87ceeb"/>
  <circle cx="15" cy="45" r="10" fill="#222222"/>
  <circle cx="65" cy="45" r="10" fill="#222222"/>
  <rect x="75" y="18" width="5" height="8" fill="#ffff00"/>
  <rect x="75" y="30" width="5" height="8" fill="#ffff00"/>

  <rect x="80" y="0" width="80" height="55" fill="transparent"/>
  <rect x="90" y="12" width="60" height="40" fill="#3d2817"/>
  <rect x="95" y="17" width="50" height="30" fill="#1a1008"/>
  <rect x="98" y="20" width="44" height="24" fill="#2a1810"/>

  <rect x="160" y="0" width="80" height="55" fill="transparent"/>
  <rect x="194" y="22" width="12" height="12" fill="#4a3828"/>
  <rect x="196" y="24" width="8" height="8" fill="#3a2818"/>
  <rect x="195" y="23" width="3" height="3" fill="#5a4838"/>
  <rect x="201" y="28" width="4" height="4" fill="#5a4838"/>

  <rect x="240" y="0" width="80" height="55" fill="transparent"/>
  <rect x="274" y="22" width="4" height="30" fill="#228b22"/>
  <rect x="268" y="12" width="8" height="20" fill="#9acd32"/>
  <rect x="276" y="12" width="8" height="20" fill="#9acd32"/>
  <rect x="272" y="4" width="8" height="14" fill="#ffd700"/>
</svg>
